<?xml version="1.0" encoding="UTF-8"?>
<svg xmlns="http://www.w3.org/2000/svg" xmlns:xlink="http://www.w3.org/1999/xlink" width="45px" height="55px" viewBox="0 0 45 55" version="1.1">
<g id="surface1">
<path style=" stroke:none;fill-rule:nonzero;fill:rgb(92.54902%,87.45098%,65.490196%);fill-opacity:1;" d="M 21.054688 27.566406 L 17.257812 54.421875 C 17.257812 54.421875 11.0625 56.671875 5.449219 51.96875 L 11.601562 25.929688 L 0 2.628906 C 0 2.628906 4.582031 0.707031 7.515625 1.363281 L 17.710938 20.410156 L 35.382812 5.53125 C 35.382812 5.53125 41.328125 7.574219 41.863281 9.539062 Z M 21.054688 27.566406 "/>
<path style=" stroke:none;fill-rule:nonzero;fill:rgb(24.705882%,24.313725%,16.078431%);fill-opacity:1;" d="M 44.257812 30.25 C 43.96875 29.675781 43.59375 29.144531 43.183594 28.65625 C 42.359375 27.714844 41.367188 26.9375 40.292969 26.324219 C 39.261719 25.671875 38.105469 25.140625 36.949219 24.773438 L 36.496094 24.648438 C 36.371094 24.609375 36.25 24.566406 36.125 24.527344 C 35.875 24.445312 35.671875 24.320312 35.460938 24.242188 C 35.050781 23.996094 34.761719 23.75 34.554688 23.421875 C 34.140625 22.808594 34.101562 21.871094 34.304688 20.886719 C 34.347656 20.640625 34.429688 20.398438 34.515625 20.152344 C 34.59375 19.90625 34.679688 19.664062 34.761719 19.375 C 34.84375 19.007812 34.882812 18.640625 34.882812 18.191406 L 35.09375 18.027344 L 37.570312 15.984375 C 38.023438 15.617188 38.476562 15.207031 38.929688 14.835938 C 39.09375 14.921875 39.261719 15.042969 39.382812 15.125 C 39.382812 15.125 40.664062 15.25 41.367188 13.324219 L 40.996094 13.082031 L 41.242188 12.878906 L 41.863281 12.34375 C 42.070312 12.183594 42.234375 11.976562 42.316406 11.609375 C 41.945312 11.570312 41.695312 11.691406 41.492188 11.855469 L 40.828125 12.34375 L 40.375 12.671875 L 34.679688 8.789062 C 34.96875 8.542969 35.214844 8.339844 35.503906 8.09375 L 36.703125 7.03125 C 36.742188 6.988281 36.785156 6.949219 36.828125 6.90625 C 36.949219 6.988281 37.03125 7.074219 37.15625 7.152344 C 37.445312 7.359375 37.773438 7.5625 38.0625 7.726562 L 39.882812 8.707031 C 40.460938 9.03125 41.078125 9.359375 41.695312 9.648438 C 41.984375 9.8125 42.316406 9.933594 42.648438 10.054688 C 42.8125 10.097656 42.976562 10.179688 43.140625 10.21875 C 43.226562 10.21875 43.347656 10.261719 43.429688 10.261719 L 43.636719 10.261719 C 43.71875 10.261719 43.804688 10.21875 43.882812 10.097656 L 43.882812 10.054688 C 43.882812 10.015625 43.882812 9.972656 43.925781 9.933594 L 43.925781 9.769531 C 43.925781 9.6875 43.882812 9.648438 43.84375 9.605469 C 43.804688 9.523438 43.71875 9.445312 43.679688 9.359375 C 43.554688 9.238281 43.429688 9.074219 43.304688 8.992188 C 43.0625 8.75 42.773438 8.542969 42.523438 8.339844 C 41.984375 7.929688 41.40625 7.5625 40.828125 7.195312 C 40.25 6.828125 39.671875 6.5 39.054688 6.214844 C 38.765625 6.050781 38.4375 5.925781 38.105469 5.804688 C 37.9375 5.765625 37.773438 5.683594 37.570312 5.640625 C 37.484375 5.640625 37.363281 5.597656 37.238281 5.597656 C 37.15625 5.597656 37.117188 5.597656 36.992188 5.640625 C 36.90625 5.683594 36.785156 5.722656 36.660156 5.84375 C 36.371094 5.96875 36.125 6.089844 35.917969 6.253906 L 34.679688 6.949219 C 34.304688 7.234375 33.894531 7.5625 33.523438 7.847656 L 33.109375 7.5625 C 33.109375 7.5625 31.375 7.726562 31.953125 8.828125 C 31.953125 8.828125 31.996094 8.871094 32.117188 8.992188 C 30.46875 10.339844 28.859375 11.730469 27.25 13.082031 C 25.59375 14.46875 23.984375 15.859375 22.335938 17.292969 L 19.898438 19.417969 C 19.773438 19.539062 19.652344 19.664062 19.484375 19.785156 C 19.40625 19.539062 19.28125 19.335938 19.195312 19.128906 L 18.617188 17.902344 L 17.503906 15.453125 C 16.761719 13.816406 16.015625 12.183594 15.234375 10.546875 L 12.921875 5.683594 C 12.796875 5.4375 12.671875 5.191406 12.550781 4.945312 L 13.046875 4.945312 C 13.046875 4.945312 13.210938 3.597656 12.21875 3.351562 C 12.21875 3.351562 12.054688 3.351562 11.804688 3.394531 C 11.4375 2.65625 11.105469 1.921875 10.734375 1.183594 L 10.570312 0.574219 C 10.527344 0.367188 10.40625 0.285156 10.320312 0.207031 C 10.238281 0.164062 10.15625 0.121094 10.117188 0.121094 C 9.992188 0.0820312 9.90625 0.0820312 9.785156 0.0390625 C 9.578125 0 9.414062 0 9.25 0 C 8.875 0 8.546875 0.0390625 8.214844 0.0820312 C 7.554688 0.164062 6.851562 0.285156 6.195312 0.449219 C 5.53125 0.613281 4.871094 0.777344 4.210938 0.980469 C 3.882812 1.101562 3.550781 1.183594 3.261719 1.347656 C 3.09375 1.429688 2.929688 1.511719 2.765625 1.59375 C 2.683594 1.636719 2.601562 1.71875 2.515625 1.757812 C 2.476562 1.796875 2.4375 1.839844 2.394531 1.882812 C 2.351562 1.921875 2.351562 1.960938 2.3125 2.003906 L 2.3125 2.164062 C 2.351562 2.332031 2.4375 2.371094 2.515625 2.410156 C 2.601562 2.453125 2.640625 2.492188 2.683594 2.492188 C 2.804688 2.535156 2.890625 2.535156 2.972656 2.578125 C 3.136719 2.617188 3.34375 2.617188 3.507812 2.617188 C 3.839844 2.617188 4.210938 2.578125 4.539062 2.535156 C 5.203125 2.453125 5.90625 2.371094 6.5625 2.25 L 8.585938 1.921875 C 8.917969 1.882812 9.25 1.796875 9.617188 1.71875 C 9.90625 2.289062 10.195312 2.902344 10.484375 3.472656 C 8.585938 3.640625 5.617188 3.882812 3.757812 4.085938 C 3.550781 3.71875 3.382812 3.394531 3.179688 3.023438 C 3.136719 2.945312 3.015625 2.859375 2.890625 2.902344 C 2.765625 2.945312 2.726562 3.066406 2.765625 3.1875 C 2.890625 3.515625 3.015625 3.800781 3.136719 4.128906 C 2.5625 4.210938 2.1875 4.292969 2.148438 4.375 C 1.9375 4.742188 2.5625 6.664062 3.382812 7.152344 C 3.382812 7.152344 3.714844 7.03125 4.292969 6.90625 C 4.582031 7.5625 4.871094 8.214844 5.160156 8.871094 L 7.636719 14.429688 L 10.15625 19.988281 C 10.984375 21.828125 11.847656 23.667969 12.714844 25.550781 C 12.714844 25.550781 12.714844 25.589844 12.757812 25.589844 C 12.632812 25.996094 12.507812 26.40625 12.382812 26.816406 C 12.054688 27.960938 11.726562 29.105469 11.394531 30.25 C 10.773438 32.539062 10.195312 34.867188 9.617188 37.160156 L 8.75 40.632812 L 7.925781 44.105469 C 7.347656 46.4375 6.8125 48.726562 6.152344 51.015625 C 6.152344 51.058594 6.152344 51.136719 6.195312 51.179688 C 6.523438 51.628906 6.976562 51.957031 7.390625 52.28125 C 7.84375 52.609375 8.296875 52.855469 8.75 53.101562 C 9.703125 53.589844 10.695312 53.957031 11.726562 54.285156 C 12.757812 54.570312 13.828125 54.777344 14.945312 54.816406 C 15.484375 54.859375 16.0625 54.816406 16.59375 54.734375 C 17.132812 54.652344 17.671875 54.570312 18.25 54.40625 C 18.414062 54.367188 18.539062 54.203125 18.578125 54.039062 L 18.578125 54 C 19.03125 51.753906 19.40625 49.460938 19.816406 47.214844 L 20.972656 40.386719 C 21.34375 38.097656 21.757812 35.851562 22.128906 33.558594 C 22.171875 33.316406 22.210938 33.03125 22.25 32.785156 C 22.335938 32.867188 22.375 32.988281 22.460938 33.070312 C 22.871094 33.558594 23.367188 33.96875 23.863281 34.339844 C 24.851562 35.03125 25.925781 35.5625 27 35.972656 C 28.074219 36.382812 29.1875 36.710938 30.304688 36.953125 C 31.046875 37.117188 31.75 37.238281 32.492188 37.320312 C 32.160156 38.058594 31.953125 38.835938 31.996094 39.691406 C 31.996094 39.773438 32.039062 39.855469 32.117188 39.898438 L 32.160156 39.898438 C 32.945312 40.304688 33.773438 40.632812 34.679688 40.835938 C 35.546875 41 36.496094 41.082031 37.40625 40.960938 C 38.351562 40.835938 39.304688 40.46875 40.046875 39.855469 C 40.789062 39.242188 41.328125 38.425781 41.65625 37.566406 L 41.695312 37.527344 L 41.695312 37.484375 C 41.738281 37.117188 41.78125 36.75 41.820312 36.382812 L 41.820312 36.339844 C 42.234375 36.09375 42.648438 35.851562 43.0625 35.523438 C 43.554688 35.113281 44.007812 34.664062 44.339844 34.09375 C 44.671875 33.519531 44.875 32.824219 44.835938 32.128906 C 44.792969 31.476562 44.546875 30.820312 44.257812 30.25 Z M 43.472656 9.648438 C 43.472656 9.648438 43.472656 9.6875 43.472656 9.648438 Z M 40.539062 7.480469 C 41.117188 7.808594 41.65625 8.136719 42.195312 8.542969 C 42.4375 8.75 42.726562 8.910156 42.976562 9.15625 C 43.101562 9.277344 43.226562 9.359375 43.304688 9.484375 C 43.347656 9.523438 43.347656 9.523438 43.390625 9.566406 L 43.304688 9.566406 C 43.140625 9.523438 43.015625 9.484375 42.851562 9.445312 C 42.5625 9.320312 42.234375 9.199219 41.945312 9.074219 C 41.367188 8.789062 40.75 8.503906 40.210938 8.136719 C 39.671875 7.765625 39.136719 7.359375 38.683594 6.90625 C 38.515625 6.746094 38.351562 6.582031 38.226562 6.417969 C 38.4375 6.5 38.640625 6.582031 38.847656 6.664062 C 39.382812 6.867188 39.960938 7.152344 40.539062 7.480469 Z M 37.734375 5.683594 C 37.734375 5.683594 37.734375 5.683594 37.773438 5.722656 L 37.773438 5.804688 C 37.773438 5.804688 37.773438 5.765625 37.734375 5.765625 Z M 8.296875 1.101562 C 7.71875 1.390625 7.0625 1.59375 6.4375 1.757812 C 5.78125 1.921875 5.160156 2.042969 4.5 2.085938 C 4.171875 2.125 3.839844 2.125 3.507812 2.125 C 3.34375 2.125 3.179688 2.125 3.054688 2.085938 L 2.929688 2.085938 C 2.972656 2.085938 2.972656 2.042969 3.015625 2.042969 C 3.136719 1.960938 3.304688 1.921875 3.425781 1.839844 C 3.714844 1.71875 4.046875 1.636719 4.335938 1.511719 C 4.953125 1.347656 5.617188 1.183594 6.273438 1.0625 C 6.9375 0.941406 7.59375 0.859375 8.214844 0.816406 C 8.421875 0.816406 8.628906 0.816406 8.835938 0.777344 C 8.710938 0.898438 8.503906 0.980469 8.296875 1.101562 Z M 36.949219 15.042969 L 34.390625 17.003906 L 31.828125 19.007812 C 31.128906 19.578125 30.425781 20.152344 29.726562 20.683594 C 29.765625 20.640625 29.804688 20.5625 29.847656 20.519531 C 30.179688 20.070312 30.507812 19.664062 30.839844 19.253906 C 31.539062 18.4375 32.203125 17.578125 32.945312 16.800781 C 33.6875 16.023438 34.472656 15.25 35.257812 14.554688 C 35.671875 14.183594 36.082031 13.859375 36.539062 13.570312 C 36.660156 13.492188 36.785156 13.40625 36.90625 13.324219 C 37.28125 13.613281 37.695312 13.898438 38.0625 14.183594 C 37.734375 14.46875 37.320312 14.757812 36.949219 15.042969 Z M 6.6875 10.015625 L 6.894531 10.21875 C 7.304688 10.628906 7.71875 11.035156 8.050781 11.488281 C 8.382812 11.9375 8.671875 12.425781 8.792969 12.917969 C 8.875 13.324219 8.875 13.773438 8.671875 14.144531 L 8.628906 14.019531 Z M 8.710938 14.265625 C 8.835938 14.144531 8.917969 13.980469 9 13.773438 C 9.125 13.492188 9.125 13.164062 9.082031 12.878906 C 9 12.261719 8.710938 11.691406 8.339844 11.242188 C 7.804688 10.546875 7.140625 9.972656 6.398438 9.484375 L 5.945312 8.542969 C 5.65625 7.929688 5.367188 7.316406 5.039062 6.746094 C 5.65625 6.582031 6.398438 6.335938 7.226562 6.132812 C 7.96875 7.316406 8.628906 8.542969 9.25 9.8125 C 9.949219 11.402344 10.652344 13.082031 10.773438 14.796875 C 10.816406 15.207031 10.773438 15.65625 10.773438 16.105469 C 10.773438 16.554688 10.773438 17.003906 10.816406 17.453125 C 10.859375 18.066406 10.984375 18.722656 11.105469 19.335938 Z M 18.453125 47.582031 C 18.328125 47.746094 18.25 47.867188 18.082031 47.992188 C 17.875 48.152344 17.671875 48.234375 17.421875 48.195312 C 17.214844 48.152344 17.050781 47.949219 16.96875 47.746094 C 16.882812 47.539062 16.804688 47.296875 16.804688 47.050781 C 16.761719 46.558594 16.761719 46.070312 16.882812 45.578125 C 16.96875 45.089844 17.132812 44.640625 17.339844 44.1875 C 17.460938 43.984375 17.585938 43.78125 17.75 43.617188 C 17.917969 43.453125 18.125 43.332031 18.328125 43.371094 C 18.539062 43.371094 18.742188 43.578125 18.867188 43.78125 C 18.949219 43.902344 18.992188 44.027344 19.03125 44.148438 L 18.539062 47.050781 C 18.496094 47.253906 18.496094 47.417969 18.453125 47.582031 Z M 20.890625 33.480469 C 20.640625 34.910156 20.394531 36.339844 20.148438 37.773438 C 20.105469 37.484375 20.023438 37.199219 19.9375 36.914062 C 19.734375 36.136719 19.484375 35.402344 19.238281 34.664062 C 18.703125 33.191406 18.082031 31.761719 17.339844 30.414062 C 17.792969 31.925781 18.328125 33.355469 18.867188 34.828125 C 19.15625 35.5625 19.40625 36.300781 19.652344 36.992188 C 19.773438 37.363281 19.898438 37.730469 20.023438 38.097656 C 20.023438 38.140625 20.0625 38.222656 20.0625 38.261719 C 19.9375 38.914062 19.816406 39.570312 19.734375 40.265625 L 19.117188 43.984375 C 19.074219 43.902344 19.074219 43.820312 19.03125 43.738281 C 18.90625 43.492188 18.742188 43.25 18.414062 43.167969 C 18.125 43.085938 17.835938 43.25 17.585938 43.410156 C 17.382812 43.578125 17.214844 43.820312 17.050781 44.027344 C 16.761719 44.472656 16.59375 45.007812 16.515625 45.496094 C 16.429688 46.027344 16.390625 46.558594 16.515625 47.089844 C 16.554688 47.335938 16.636719 47.625 16.804688 47.867188 C 16.925781 48.113281 17.171875 48.359375 17.460938 48.398438 C 17.75 48.441406 18.039062 48.277344 18.207031 48.074219 C 18.289062 47.992188 18.371094 47.867188 18.453125 47.785156 C 18.164062 49.707031 17.835938 51.628906 17.546875 53.589844 C 17.171875 53.710938 16.804688 53.796875 16.429688 53.835938 C 15.9375 53.917969 15.4375 53.957031 14.945312 54 C 13.914062 54.039062 12.921875 53.957031 11.890625 53.710938 C 10.898438 53.507812 9.867188 53.183594 8.917969 52.773438 C 8.007812 52.363281 7.140625 51.832031 6.484375 51.097656 C 7.101562 48.847656 7.804688 46.601562 8.503906 44.351562 L 9.578125 40.960938 L 10.609375 37.527344 C 11.3125 35.234375 12.015625 32.949219 12.671875 30.660156 C 13.003906 29.511719 13.292969 28.367188 13.625 27.226562 C 13.871094 26.039062 14.367188 24.933594 13.996094 23.628906 L 13.996094 23.585938 C 13.953125 23.546875 13.914062 23.546875 13.914062 23.585938 C 13.707031 23.792969 13.582031 23.953125 13.417969 24.160156 C 12.960938 23.136719 12.46875 22.15625 12.015625 21.132812 C 11.890625 20.765625 11.765625 20.398438 11.683594 19.988281 C 11.476562 19.128906 11.3125 18.273438 11.273438 17.414062 C 11.226562 16.964844 11.226562 16.554688 11.226562 16.105469 C 11.226562 15.65625 11.273438 15.207031 11.226562 14.757812 C 11.0625 12.957031 10.363281 11.242188 9.578125 9.648438 C 8.960938 8.378906 8.214844 7.195312 7.390625 6.050781 C 8.75 5.683594 10.195312 5.316406 11.351562 5.109375 C 11.515625 5.476562 11.726562 5.804688 11.890625 6.171875 L 14.367188 10.996094 C 15.195312 12.589844 16.015625 14.183594 16.84375 15.777344 L 18.082031 18.148438 L 18.703125 19.335938 C 18.867188 19.578125 18.949219 19.867188 19.117188 20.070312 C 18.578125 20.5625 18.039062 21.054688 17.503906 21.542969 C 17.460938 21.582031 17.421875 21.664062 17.503906 21.746094 C 17.546875 21.828125 17.671875 21.828125 17.710938 21.789062 C 18.578125 21.175781 19.445312 20.519531 20.3125 19.867188 L 22.914062 17.902344 C 24.648438 16.597656 26.339844 15.289062 28.03125 13.980469 C 29.726562 12.671875 31.417969 11.324219 33.109375 9.972656 L 33.152344 9.933594 C 34.0625 10.792969 35.421875 12.058594 36.867188 13.164062 C 36.25 13.492188 35.671875 13.816406 35.132812 14.226562 C 34.265625 14.878906 33.4375 15.617188 32.695312 16.433594 C 31.953125 17.25 31.25 18.066406 30.632812 18.96875 C 30.179688 19.578125 29.765625 20.234375 29.351562 20.929688 C 26.835938 22.972656 24.359375 25.058594 21.960938 27.226562 C 21.882812 27.304688 21.882812 27.429688 21.921875 27.511719 C 22.003906 27.59375 22.128906 27.632812 22.210938 27.59375 C 21.921875 28.410156 21.757812 29.226562 21.59375 30.046875 C 21.34375 31.1875 21.09375 32.335938 20.890625 33.480469 Z M 39.136719 38.957031 C 38.5625 39.40625 37.859375 39.691406 37.117188 39.855469 C 36.371094 40.019531 35.546875 40.019531 34.761719 39.9375 C 34.015625 39.855469 33.234375 39.734375 32.492188 39.53125 C 32.40625 38.875 32.53125 38.140625 32.820312 37.484375 C 33.109375 37.527344 33.359375 37.527344 33.648438 37.566406 C 33.773438 37.566406 33.851562 37.527344 33.894531 37.402344 C 33.9375 37.28125 33.894531 37.117188 33.726562 37.078125 C 33.523438 36.992188 33.359375 36.953125 33.152344 36.871094 C 33.316406 36.585938 33.523438 36.339844 33.726562 36.09375 C 33.976562 35.851562 34.226562 35.605469 34.472656 35.402344 C 35.007812 35.726562 35.546875 35.972656 36.164062 36.175781 C 36.867188 36.382812 37.609375 36.464844 38.394531 36.382812 C 39.136719 36.300781 39.921875 35.929688 40.417969 35.316406 C 40.871094 34.789062 41.078125 34.171875 41.117188 33.519531 C 41.203125 33.765625 41.203125 34.050781 41.160156 34.296875 C 41.117188 34.621094 41.078125 34.992188 40.996094 35.316406 C 40.953125 35.523438 40.914062 35.726562 40.871094 35.929688 C 40.664062 36.054688 40.460938 36.175781 40.25 36.300781 C 40.003906 36.464844 39.796875 36.625 39.59375 36.992188 C 39.960938 37.117188 40.25 37.078125 40.539062 36.992188 C 40.582031 36.992188 40.582031 36.953125 40.625 36.953125 C 40.582031 37.078125 40.582031 37.160156 40.539062 37.28125 C 40.210938 37.933594 39.714844 38.507812 39.136719 38.957031 Z M 43.226562 33.601562 C 43.015625 34.050781 42.6875 34.460938 42.316406 34.828125 C 42.152344 34.992188 41.945312 35.15625 41.78125 35.277344 C 41.78125 34.910156 41.738281 34.542969 41.65625 34.171875 C 41.617188 33.96875 41.574219 33.804688 41.492188 33.601562 C 41.40625 33.4375 41.328125 33.234375 41.117188 33.109375 C 41.078125 33.109375 41.039062 33.109375 41.039062 33.152344 C 40.789062 33.765625 40.375 34.296875 39.921875 34.664062 C 39.46875 35.03125 38.890625 35.195312 38.3125 35.234375 C 37.734375 35.277344 37.117188 35.15625 36.496094 34.992188 C 35.875 34.828125 35.257812 34.621094 34.636719 34.417969 L 34.554688 34.378906 C 34.429688 34.339844 34.265625 34.378906 34.183594 34.460938 C 33.851562 34.867188 33.605469 35.234375 33.316406 35.644531 C 33.109375 35.972656 32.945312 36.257812 32.78125 36.585938 C 32.039062 36.300781 31.335938 36.054688 30.59375 35.769531 C 29.5625 35.359375 28.527344 34.949219 27.578125 34.460938 C 26.585938 34.011719 25.636719 33.480469 24.8125 32.867188 C 23.984375 32.253906 23.242188 31.597656 22.871094 30.78125 L 22.871094 30.738281 C 22.789062 30.578125 22.664062 30.453125 22.5 30.371094 C 22.5 30.292969 22.539062 30.167969 22.539062 30.085938 C 22.664062 29.105469 22.828125 28.125 22.75 27.101562 C 26.09375 24.773438 29.351562 22.320312 32.574219 19.785156 C 32.53125 19.90625 32.492188 20.03125 32.449219 20.152344 C 32.242188 20.765625 32.160156 21.460938 32.160156 22.15625 C 32.203125 22.851562 32.40625 23.628906 32.863281 24.28125 C 33.316406 24.933594 33.9375 25.425781 34.554688 25.710938 C 34.882812 25.875 35.214844 25.996094 35.503906 26.078125 C 35.671875 26.121094 35.835938 26.164062 36 26.203125 L 36.414062 26.285156 C 37.484375 26.570312 38.515625 26.980469 39.46875 27.511719 C 40.417969 28.042969 41.328125 28.695312 42.070312 29.433594 C 42.8125 30.167969 43.390625 31.109375 43.472656 32.046875 C 43.515625 32.703125 43.429688 33.191406 43.226562 33.601562 Z M 43.226562 33.601562 "/>
<path style=" stroke:none;fill-rule:nonzero;fill:rgb(24.705882%,24.313725%,16.078431%);fill-opacity:1;" d="M 15.8125 43.003906 C 15.484375 43.453125 15.234375 43.984375 15.109375 44.515625 C 15.027344 44.800781 14.984375 45.089844 14.984375 45.332031 L 14.945312 46.152344 C 14.863281 47.214844 14.90625 48.359375 15.234375 49.421875 C 15.5625 50.484375 16.015625 51.464844 16.554688 52.40625 C 16.390625 51.875 16.183594 51.382812 16.015625 50.894531 C 15.851562 50.402344 15.6875 49.871094 15.5625 49.339844 C 15.316406 48.320312 15.316406 47.253906 15.359375 46.191406 L 15.398438 45.375 C 15.398438 45.128906 15.4375 44.84375 15.484375 44.597656 C 15.605469 44.105469 15.8125 43.617188 16.0625 43.167969 C 16.347656 42.71875 16.679688 42.308594 17.09375 41.941406 C 17.460938 41.574219 17.917969 41.246094 18.414062 41 C 17.382812 41.410156 16.429688 42.0625 15.8125 43.003906 Z M 15.8125 43.003906 "/>
</g>
</svg>
