<?xml version="1.0" encoding="UTF-8"?>
<svg xmlns="http://www.w3.org/2000/svg" xmlns:xlink="http://www.w3.org/1999/xlink" width="90px" height="111px" viewBox="0 0 90 111" version="1.1">
<g id="surface1">
<path style=" stroke:none;fill-rule:nonzero;fill:rgb(92.54902%,87.45098%,65.490196%);fill-opacity:1;" d="M 42.109375 55.632812 L 34.515625 109.832031 C 34.515625 109.832031 22.128906 114.371094 10.898438 104.882812 L 23.203125 52.332031 L 0 5.304688 C 0 5.304688 9.164062 1.429688 15.027344 2.75 L 35.421875 41.195312 L 70.761719 11.164062 C 70.761719 11.164062 82.652344 15.289062 83.726562 19.25 Z M 42.109375 55.632812 "/>
<path style=" stroke:none;fill-rule:nonzero;fill:rgb(24.705882%,24.313725%,16.078431%);fill-opacity:1;" d="M 88.515625 61.050781 C 87.9375 59.894531 87.191406 58.820312 86.367188 57.832031 C 84.714844 55.933594 82.734375 54.367188 80.585938 53.128906 C 78.523438 51.808594 76.210938 50.738281 73.898438 49.996094 L 72.992188 49.746094 C 72.742188 49.664062 72.496094 49.582031 72.246094 49.5 C 71.753906 49.335938 71.339844 49.085938 70.925781 48.921875 C 70.101562 48.425781 69.523438 47.933594 69.109375 47.273438 C 68.285156 46.035156 68.203125 44.136719 68.613281 42.15625 C 68.695312 41.660156 68.863281 41.167969 69.027344 40.671875 C 69.191406 40.175781 69.359375 39.683594 69.523438 39.105469 C 69.6875 38.363281 69.769531 37.621094 69.769531 36.710938 L 70.183594 36.382812 L 75.136719 32.257812 C 76.046875 31.515625 76.953125 30.691406 77.863281 29.945312 C 78.191406 30.113281 78.523438 30.359375 78.769531 30.523438 C 78.769531 30.523438 81.332031 30.773438 82.734375 26.894531 L 81.992188 26.398438 L 82.484375 25.988281 L 83.726562 24.914062 C 84.136719 24.585938 84.46875 24.171875 84.632812 23.429688 C 83.890625 23.347656 83.394531 23.59375 82.980469 23.925781 L 81.660156 24.914062 L 80.753906 25.574219 L 69.359375 17.738281 C 69.9375 17.242188 70.429688 16.828125 71.007812 16.335938 L 73.402344 14.191406 C 73.484375 14.105469 73.570312 14.023438 73.652344 13.941406 C 73.898438 14.105469 74.0625 14.273438 74.3125 14.4375 C 74.890625 14.851562 75.550781 15.261719 76.128906 15.59375 L 79.761719 17.574219 C 80.917969 18.230469 82.15625 18.890625 83.394531 19.46875 C 83.972656 19.800781 84.632812 20.046875 85.292969 20.292969 C 85.625 20.378906 85.953125 20.542969 86.285156 20.625 C 86.449219 20.625 86.695312 20.707031 86.863281 20.707031 L 87.273438 20.707031 C 87.441406 20.707031 87.605469 20.625 87.769531 20.378906 L 87.769531 20.292969 C 87.769531 20.210938 87.769531 20.128906 87.851562 20.046875 L 87.851562 19.71875 C 87.851562 19.550781 87.769531 19.46875 87.6875 19.386719 C 87.605469 19.222656 87.441406 19.058594 87.359375 18.890625 C 87.109375 18.644531 86.863281 18.316406 86.613281 18.148438 C 86.121094 17.65625 85.542969 17.242188 85.046875 16.828125 C 83.972656 16.003906 82.816406 15.261719 81.660156 14.519531 C 80.503906 13.777344 79.347656 13.117188 78.109375 12.539062 C 77.53125 12.210938 76.871094 11.960938 76.210938 11.714844 C 75.878906 11.632812 75.550781 11.46875 75.136719 11.386719 C 74.972656 11.386719 74.726562 11.300781 74.476562 11.300781 C 74.3125 11.300781 74.230469 11.300781 73.980469 11.386719 C 73.816406 11.46875 73.570312 11.550781 73.320312 11.796875 C 72.742188 12.042969 72.246094 12.292969 71.835938 12.621094 L 69.359375 14.023438 C 68.613281 14.601562 67.789062 15.261719 67.046875 15.839844 L 66.21875 15.261719 C 66.21875 15.261719 62.753906 15.59375 63.910156 17.820312 C 63.910156 17.820312 63.992188 17.902344 64.238281 18.148438 C 60.9375 20.871094 57.714844 23.675781 54.496094 26.398438 C 51.191406 29.203125 47.972656 32.007812 44.667969 34.898438 L 39.796875 39.1875 C 39.550781 39.433594 39.304688 39.683594 38.972656 39.929688 C 38.808594 39.433594 38.558594 39.023438 38.394531 38.609375 L 37.238281 36.132812 L 35.007812 31.183594 C 33.523438 27.882812 32.035156 24.585938 30.46875 21.285156 L 25.84375 11.46875 C 25.597656 10.972656 25.347656 10.476562 25.101562 9.980469 L 26.089844 9.980469 C 26.089844 9.980469 26.421875 7.261719 24.441406 6.765625 C 24.441406 6.765625 24.109375 6.765625 23.613281 6.847656 C 22.871094 5.363281 22.210938 3.878906 21.46875 2.390625 L 21.136719 1.15625 C 21.054688 0.742188 20.808594 0.578125 20.640625 0.414062 C 20.476562 0.328125 20.3125 0.246094 20.230469 0.246094 C 19.980469 0.164062 19.816406 0.164062 19.570312 0.0820312 C 19.15625 0 18.824219 0 18.496094 0 C 17.753906 0 17.089844 0.0820312 16.429688 0.164062 C 15.109375 0.328125 13.707031 0.578125 12.386719 0.90625 C 11.0625 1.238281 9.742188 1.566406 8.421875 1.980469 C 7.761719 2.226562 7.101562 2.390625 6.523438 2.722656 C 6.191406 2.886719 5.863281 3.050781 5.53125 3.21875 C 5.367188 3.300781 5.203125 3.464844 5.035156 3.546875 C 4.953125 3.628906 4.871094 3.710938 4.789062 3.796875 C 4.707031 3.878906 4.707031 3.960938 4.625 4.042969 L 4.625 4.371094 C 4.707031 4.703125 4.871094 4.785156 5.035156 4.867188 C 5.203125 4.949219 5.285156 5.03125 5.367188 5.03125 C 5.613281 5.113281 5.78125 5.113281 5.945312 5.199219 C 6.273438 5.28125 6.6875 5.28125 7.019531 5.28125 C 7.679688 5.28125 8.421875 5.199219 9.082031 5.113281 C 10.402344 4.949219 11.808594 4.785156 13.128906 4.539062 L 17.175781 3.878906 C 17.835938 3.796875 18.496094 3.628906 19.238281 3.464844 C 19.816406 4.621094 20.394531 5.859375 20.972656 7.011719 C 17.175781 7.34375 11.230469 7.835938 7.515625 8.25 C 7.101562 7.507812 6.769531 6.847656 6.359375 6.105469 C 6.273438 5.941406 6.027344 5.773438 5.78125 5.859375 C 5.53125 5.941406 5.449219 6.1875 5.53125 6.433594 C 5.78125 7.09375 6.027344 7.671875 6.273438 8.332031 C 5.121094 8.496094 4.375 8.664062 4.292969 8.828125 C 3.878906 9.570312 5.121094 13.449219 6.769531 14.4375 C 6.769531 14.4375 7.429688 14.191406 8.585938 13.941406 C 9.164062 15.261719 9.742188 16.582031 10.320312 17.902344 L 15.273438 29.121094 L 20.3125 40.34375 C 21.964844 44.054688 23.695312 47.765625 25.429688 51.5625 C 25.429688 51.5625 25.429688 51.644531 25.515625 51.644531 C 25.265625 52.46875 25.019531 53.292969 24.769531 54.121094 C 24.109375 56.429688 23.449219 58.738281 22.789062 61.050781 C 21.550781 65.667969 20.394531 70.371094 19.238281 74.992188 L 17.503906 82.003906 L 15.851562 89.015625 C 14.695312 93.71875 13.625 98.339844 12.304688 102.957031 C 12.304688 103.042969 12.304688 103.207031 12.386719 103.289062 C 13.046875 104.195312 13.953125 104.855469 14.78125 105.515625 C 15.6875 106.175781 16.597656 106.671875 17.503906 107.167969 C 19.402344 108.15625 21.386719 108.898438 23.449219 109.558594 C 25.515625 110.136719 27.660156 110.550781 29.890625 110.632812 C 30.964844 110.714844 32.121094 110.632812 33.191406 110.464844 C 34.265625 110.300781 35.339844 110.136719 36.496094 109.804688 C 36.824219 109.722656 37.074219 109.394531 37.15625 109.0625 L 37.15625 108.980469 C 38.0625 104.445312 38.808594 99.824219 39.632812 95.285156 L 41.945312 81.507812 C 42.6875 76.890625 43.515625 72.351562 44.257812 67.730469 C 44.339844 67.238281 44.421875 66.660156 44.503906 66.164062 C 44.667969 66.328125 44.753906 66.578125 44.917969 66.742188 C 45.742188 67.730469 46.734375 68.558594 47.726562 69.300781 C 49.707031 70.703125 51.851562 71.773438 54 72.597656 C 56.148438 73.425781 58.375 74.085938 60.605469 74.578125 C 62.089844 74.910156 63.496094 75.15625 64.980469 75.320312 C 64.320312 76.808594 63.910156 78.375 63.992188 80.105469 C 63.992188 80.273438 64.074219 80.4375 64.238281 80.519531 L 64.320312 80.519531 C 65.890625 81.34375 67.542969 82.003906 69.359375 82.417969 C 71.089844 82.746094 72.992188 82.910156 74.808594 82.664062 C 76.707031 82.417969 78.605469 81.675781 80.089844 80.4375 C 81.578125 79.199219 82.652344 77.550781 83.3125 75.816406 L 83.394531 75.734375 L 83.394531 75.652344 C 83.476562 74.910156 83.558594 74.167969 83.640625 73.425781 L 83.640625 73.339844 C 84.46875 72.847656 85.292969 72.351562 86.121094 71.691406 C 87.109375 70.867188 88.019531 69.960938 88.679688 68.804688 C 89.339844 67.648438 89.753906 66.246094 89.667969 64.84375 C 89.585938 63.523438 89.089844 62.203125 88.515625 61.050781 Z M 86.945312 19.46875 C 86.945312 19.46875 86.945312 19.550781 86.945312 19.46875 Z M 81.082031 15.097656 C 82.238281 15.757812 83.3125 16.417969 84.386719 17.242188 C 84.878906 17.65625 85.457031 17.984375 85.953125 18.480469 C 86.203125 18.726562 86.449219 18.890625 86.613281 19.140625 C 86.695312 19.222656 86.695312 19.222656 86.78125 19.304688 L 86.613281 19.304688 C 86.285156 19.222656 86.035156 19.140625 85.707031 19.058594 C 85.128906 18.808594 84.46875 18.5625 83.890625 18.316406 C 82.734375 17.738281 81.496094 17.160156 80.421875 16.417969 C 79.347656 15.675781 78.273438 14.851562 77.367188 13.941406 C 77.035156 13.613281 76.707031 13.28125 76.457031 12.953125 C 76.871094 13.117188 77.285156 13.28125 77.695312 13.449219 C 78.769531 13.859375 79.925781 14.4375 81.082031 15.097656 Z M 75.46875 11.46875 C 75.46875 11.46875 75.46875 11.46875 75.550781 11.550781 L 75.550781 11.714844 C 75.550781 11.714844 75.550781 11.632812 75.46875 11.632812 Z M 16.597656 2.226562 C 15.441406 2.804688 14.121094 3.21875 12.878906 3.546875 C 11.558594 3.878906 10.320312 4.125 9 4.207031 C 8.339844 4.289062 7.679688 4.289062 7.019531 4.289062 C 6.6875 4.289062 6.359375 4.289062 6.109375 4.207031 L 5.863281 4.207031 C 5.945312 4.207031 5.945312 4.125 6.027344 4.125 C 6.273438 3.960938 6.605469 3.878906 6.851562 3.710938 C 7.429688 3.464844 8.089844 3.300781 8.667969 3.050781 C 9.910156 2.722656 11.230469 2.390625 12.550781 2.144531 C 13.871094 1.898438 15.191406 1.734375 16.429688 1.648438 C 16.84375 1.648438 17.257812 1.648438 17.667969 1.566406 C 17.421875 1.816406 17.007812 1.980469 16.597656 2.226562 Z M 73.898438 30.359375 L 68.78125 34.320312 L 63.660156 38.363281 C 62.257812 39.515625 60.851562 40.671875 59.449219 41.746094 C 59.53125 41.660156 59.613281 41.496094 59.695312 41.414062 C 60.359375 40.507812 61.019531 39.683594 61.679688 38.855469 C 63.082031 37.207031 64.402344 35.476562 65.890625 33.90625 C 67.375 32.339844 68.945312 30.773438 70.515625 29.371094 C 71.339844 28.628906 72.164062 27.96875 73.074219 27.390625 C 73.320312 27.226562 73.570312 27.058594 73.816406 26.894531 C 74.558594 27.472656 75.386719 28.050781 76.128906 28.628906 C 75.46875 29.203125 74.640625 29.78125 73.898438 30.359375 Z M 13.375 20.210938 L 13.789062 20.625 C 14.613281 21.449219 15.441406 22.273438 16.101562 23.183594 C 16.761719 24.089844 17.339844 25.078125 17.585938 26.070312 C 17.753906 26.894531 17.753906 27.800781 17.339844 28.542969 L 17.257812 28.296875 Z M 17.421875 28.792969 C 17.667969 28.542969 17.835938 28.214844 18 27.800781 C 18.246094 27.226562 18.246094 26.566406 18.164062 25.988281 C 18 24.75 17.421875 23.59375 16.679688 22.6875 C 15.605469 21.285156 14.285156 20.128906 12.796875 19.140625 L 11.890625 17.242188 C 11.3125 16.003906 10.734375 14.765625 10.074219 13.613281 C 11.3125 13.28125 12.796875 12.789062 14.449219 12.375 C 15.9375 14.765625 17.257812 17.242188 18.496094 19.800781 C 19.898438 23.015625 21.304688 26.398438 21.550781 29.863281 C 21.632812 30.691406 21.550781 31.597656 21.550781 32.503906 C 21.550781 33.414062 21.550781 34.320312 21.632812 35.226562 C 21.714844 36.464844 21.964844 37.785156 22.210938 39.023438 Z M 36.910156 96.027344 C 36.660156 96.359375 36.496094 96.605469 36.164062 96.855469 C 35.753906 97.183594 35.339844 97.347656 34.84375 97.265625 C 34.429688 97.183594 34.101562 96.769531 33.9375 96.359375 C 33.769531 95.945312 33.605469 95.453125 33.605469 94.957031 C 33.523438 93.964844 33.523438 92.976562 33.769531 91.988281 C 33.9375 90.996094 34.265625 90.089844 34.679688 89.179688 C 34.925781 88.769531 35.175781 88.355469 35.503906 88.027344 C 35.835938 87.695312 36.246094 87.449219 36.660156 87.53125 C 37.074219 87.53125 37.484375 87.945312 37.734375 88.355469 C 37.898438 88.605469 37.980469 88.851562 38.0625 89.097656 L 37.074219 94.957031 C 36.992188 95.367188 36.992188 95.699219 36.910156 96.027344 Z M 41.78125 67.566406 C 41.285156 70.453125 40.789062 73.339844 40.292969 76.230469 C 40.210938 75.652344 40.046875 75.074219 39.878906 74.496094 C 39.46875 72.929688 38.972656 71.445312 38.476562 69.960938 C 37.402344 66.988281 36.164062 64.101562 34.679688 61.378906 C 35.585938 64.433594 36.660156 67.320312 37.734375 70.289062 C 38.3125 71.773438 38.808594 73.257812 39.304688 74.660156 C 39.550781 75.402344 39.796875 76.148438 40.046875 76.890625 C 40.046875 76.972656 40.128906 77.136719 40.128906 77.21875 C 39.878906 78.539062 39.632812 79.859375 39.46875 81.261719 L 38.230469 88.769531 C 38.148438 88.605469 38.148438 88.4375 38.0625 88.273438 C 37.816406 87.777344 37.484375 87.285156 36.824219 87.117188 C 36.246094 86.953125 35.667969 87.285156 35.175781 87.613281 C 34.761719 87.945312 34.429688 88.4375 34.101562 88.851562 C 33.523438 89.757812 33.191406 90.832031 33.027344 91.820312 C 32.863281 92.894531 32.78125 93.964844 33.027344 95.039062 C 33.109375 95.535156 33.273438 96.113281 33.605469 96.605469 C 33.851562 97.101562 34.347656 97.597656 34.925781 97.679688 C 35.503906 97.761719 36.082031 97.429688 36.414062 97.019531 C 36.578125 96.855469 36.742188 96.605469 36.910156 96.441406 C 36.332031 100.320312 35.667969 104.195312 35.089844 108.15625 C 34.347656 108.402344 33.605469 108.570312 32.863281 108.652344 C 31.871094 108.816406 30.878906 108.898438 29.890625 108.980469 C 27.824219 109.0625 25.84375 108.898438 23.78125 108.402344 C 21.796875 107.992188 19.734375 107.332031 17.835938 106.507812 C 16.019531 105.679688 14.285156 104.609375 12.964844 103.125 C 14.203125 98.585938 15.605469 94.050781 17.007812 89.511719 L 19.15625 82.664062 L 21.21875 75.734375 C 22.625 71.113281 24.027344 66.496094 25.347656 61.875 C 26.007812 59.5625 26.585938 57.253906 27.246094 54.945312 C 27.742188 52.550781 28.734375 50.324219 27.992188 47.683594 L 27.992188 47.601562 C 27.910156 47.519531 27.824219 47.519531 27.824219 47.601562 C 27.414062 48.015625 27.164062 48.34375 26.835938 48.757812 C 25.925781 46.695312 24.9375 44.714844 24.027344 42.652344 C 23.78125 41.910156 23.53125 41.167969 23.367188 40.34375 C 22.953125 38.609375 22.625 36.878906 22.542969 35.144531 C 22.457031 34.238281 22.457031 33.414062 22.457031 32.503906 C 22.457031 31.597656 22.542969 30.691406 22.457031 29.78125 C 22.128906 26.152344 20.726562 22.6875 19.15625 19.46875 C 17.917969 16.914062 16.429688 14.519531 14.78125 12.210938 C 17.503906 11.46875 20.394531 10.726562 22.707031 10.3125 C 23.035156 11.054688 23.449219 11.714844 23.78125 12.457031 L 28.734375 22.191406 C 30.386719 25.410156 32.035156 28.628906 33.6875 31.84375 L 36.164062 36.628906 L 37.402344 39.023438 C 37.734375 39.515625 37.898438 40.09375 38.230469 40.507812 C 37.15625 41.496094 36.082031 42.488281 35.007812 43.476562 C 34.925781 43.558594 34.84375 43.722656 35.007812 43.890625 C 35.089844 44.054688 35.339844 44.054688 35.421875 43.972656 C 37.15625 42.734375 38.890625 41.414062 40.625 40.09375 L 45.824219 36.132812 C 49.292969 33.496094 52.679688 30.855469 56.0625 28.214844 C 59.449219 25.574219 62.835938 22.851562 66.21875 20.128906 L 66.304688 20.046875 C 68.121094 21.78125 70.84375 24.335938 73.734375 26.566406 C 72.496094 27.226562 71.339844 27.882812 70.265625 28.710938 C 68.53125 30.03125 66.878906 31.515625 65.394531 33.164062 C 63.910156 34.816406 62.503906 36.464844 61.265625 38.28125 C 60.359375 39.515625 59.53125 40.835938 58.707031 42.238281 C 53.667969 46.363281 48.714844 50.570312 43.925781 54.945312 C 43.761719 55.109375 43.761719 55.355469 43.84375 55.523438 C 44.007812 55.6875 44.257812 55.769531 44.421875 55.6875 C 43.84375 57.335938 43.515625 58.988281 43.183594 60.636719 C 42.6875 62.945312 42.191406 65.257812 41.78125 67.566406 Z M 78.273438 78.621094 C 77.121094 79.527344 75.714844 80.105469 74.230469 80.4375 C 72.742188 80.765625 71.089844 80.765625 69.523438 80.601562 C 68.035156 80.4375 66.46875 80.1875 64.980469 79.777344 C 64.816406 78.457031 65.0625 76.972656 65.640625 75.652344 C 66.21875 75.734375 66.714844 75.734375 67.292969 75.816406 C 67.542969 75.816406 67.707031 75.734375 67.789062 75.488281 C 67.871094 75.238281 67.789062 74.910156 67.457031 74.828125 C 67.046875 74.660156 66.714844 74.578125 66.304688 74.414062 C 66.632812 73.835938 67.046875 73.339844 67.457031 72.847656 C 67.953125 72.351562 68.449219 71.855469 68.945312 71.445312 C 70.019531 72.105469 71.089844 72.597656 72.332031 73.011719 C 73.734375 73.425781 75.21875 73.589844 76.789062 73.425781 C 78.273438 73.257812 79.84375 72.515625 80.835938 71.277344 C 81.742188 70.207031 82.15625 68.96875 82.238281 67.648438 C 82.402344 68.144531 82.402344 68.722656 82.320312 69.214844 C 82.238281 69.875 82.15625 70.621094 81.992188 71.277344 C 81.910156 71.691406 81.824219 72.105469 81.742188 72.515625 C 81.332031 72.765625 80.917969 73.011719 80.503906 73.257812 C 80.007812 73.589844 79.597656 73.917969 79.183594 74.660156 C 79.925781 74.910156 80.503906 74.828125 81.082031 74.660156 C 81.164062 74.660156 81.164062 74.578125 81.246094 74.578125 C 81.164062 74.828125 81.164062 74.992188 81.082031 75.238281 C 80.421875 76.558594 79.429688 77.714844 78.273438 78.621094 Z M 86.449219 67.8125 C 86.035156 68.722656 85.375 69.546875 84.632812 70.289062 C 84.304688 70.621094 83.890625 70.949219 83.558594 71.195312 C 83.558594 70.453125 83.476562 69.710938 83.3125 68.96875 C 83.230469 68.558594 83.148438 68.226562 82.980469 67.8125 C 82.816406 67.484375 82.652344 67.070312 82.238281 66.824219 C 82.15625 66.824219 82.074219 66.824219 82.074219 66.90625 C 81.578125 68.144531 80.753906 69.214844 79.84375 69.960938 C 78.9375 70.703125 77.78125 71.03125 76.625 71.113281 C 75.46875 71.195312 74.230469 70.949219 72.992188 70.621094 C 71.753906 70.289062 70.515625 69.875 69.273438 69.464844 L 69.109375 69.382812 C 68.863281 69.300781 68.53125 69.382812 68.367188 69.546875 C 67.707031 70.371094 67.210938 71.113281 66.632812 71.9375 C 66.21875 72.597656 65.890625 73.175781 65.558594 73.835938 C 64.074219 73.257812 62.667969 72.765625 61.183594 72.1875 C 59.121094 71.363281 57.054688 70.535156 55.15625 69.546875 C 53.175781 68.640625 51.273438 67.566406 49.625 66.328125 C 47.972656 65.09375 46.484375 63.773438 45.742188 62.121094 L 45.742188 62.039062 C 45.578125 61.710938 45.332031 61.460938 45 61.296875 C 45 61.132812 45.082031 60.882812 45.082031 60.71875 C 45.332031 58.738281 45.660156 56.757812 45.496094 54.695312 C 52.183594 49.996094 58.707031 45.042969 65.148438 39.929688 C 65.0625 40.175781 64.980469 40.425781 64.898438 40.671875 C 64.484375 41.910156 64.320312 43.3125 64.320312 44.714844 C 64.402344 46.117188 64.816406 47.683594 65.726562 49.003906 C 66.632812 50.324219 67.871094 51.316406 69.109375 51.890625 C 69.769531 52.222656 70.429688 52.46875 71.007812 52.632812 C 71.339844 52.71875 71.667969 52.800781 72 52.882812 L 72.824219 53.046875 C 74.972656 53.625 77.035156 54.449219 78.9375 55.523438 C 80.835938 56.59375 82.652344 57.914062 84.136719 59.398438 C 85.625 60.882812 86.78125 62.78125 86.945312 64.679688 C 87.027344 66 86.863281 66.988281 86.449219 67.8125 Z M 86.449219 67.8125 "/>
<path style=" stroke:none;fill-rule:nonzero;fill:rgb(24.705882%,24.313725%,16.078431%);fill-opacity:1;" d="M 31.625 86.789062 C 30.964844 87.695312 30.46875 88.769531 30.21875 89.839844 C 30.054688 90.417969 29.972656 90.996094 29.972656 91.492188 L 29.890625 93.140625 C 29.726562 95.285156 29.808594 97.597656 30.46875 99.742188 C 31.128906 101.886719 32.035156 103.867188 33.109375 105.765625 C 32.78125 104.691406 32.367188 103.703125 32.035156 102.710938 C 31.707031 101.722656 31.375 100.648438 31.128906 99.578125 C 30.632812 97.515625 30.632812 95.367188 30.714844 93.222656 L 30.796875 91.574219 C 30.796875 91.078125 30.878906 90.5 30.964844 90.007812 C 31.210938 89.015625 31.625 88.027344 32.121094 87.117188 C 32.695312 86.210938 33.359375 85.386719 34.183594 84.644531 C 34.925781 83.902344 35.835938 83.242188 36.824219 82.746094 C 34.761719 83.570312 32.863281 84.890625 31.625 86.789062 Z M 31.625 86.789062 "/>
</g>
</svg>
