<?xml version="1.0" ?><svg id="Layer_1" style="enable-background:new 0 0 152 152;" version="1.1" viewBox="0 0 152 152" xml:space="preserve" xmlns="http://www.w3.org/2000/svg" xmlns:xlink="http://www.w3.org/1999/xlink"><style type="text/css">
	.st0{fill:#4875B4;}
	.st1{opacity:0.2;fill:#FFFFFF;}
	.st2{opacity:0.2;fill:#2D3079;}
	.st3{fill:#FFFFFF;}
	.st4{opacity:0.2;}
	.st5{fill:#202020;}
</style><g id="XMLID_542_"><path class="st0" d="M138.6,150.6H12c-6.6,0-12-5.4-12-12V12C0,5.4,5.4,0,12,0h126.6c6.6,0,12,5.4,12,12v126.6   C150.6,145.2,145.2,150.6,138.6,150.6z" id="XMLID_541_"/><path class="st1" d="M138.7,0H11.9C5.4,0,0,5.3,0,11.9v1C0,6.3,5.4,1,11.9,1h126.8c6.5,0,11.9,5.3,11.9,11.9v-1   C150.6,5.3,145.2,0,138.7,0z" id="XMLID_540_"/><path class="st2" d="M138.7,150.6H11.9c-6.5,0-11.9-5.4-11.9-11.9v1c0,6.5,5.4,11.9,11.9,11.9h126.8   c6.5,0,11.9-5.4,11.9-11.9v-1C150.6,145.2,145.2,150.6,138.7,150.6z" id="XMLID_539_"/><path class="st3" d="M36,75.3c0-10.9,0.1-21.8,0-32.8c0-4.2,3.1-6.4,6.4-6.4c21.9,0.1,43.7,0,65.6,0   c4,0,6.3,2.3,6.3,6.3c0,21.9,0,43.9,0,65.8c0,3.9-2.3,6.2-6.3,6.2c-22,0-43.9,0-65.9,0c-3.1,0-5.3-1.6-6-4.2   c-0.2-0.6-0.2-1.3-0.2-2C36,97.3,36,86.3,36,75.3z M78.1,101.7c0-0.4,0-0.8,0-1.2c0-6.5,0-13,0-19.5c0-2.2,1.1-3.8,2.8-5.1   c3.5-2.5,8-0.9,9.1,3.2c0.3,1.3,0.5,2.8,0.5,4.1c0,5.8,0,11.6,0,17.3c0,0.3,0,0.7,0,1.1c4,0,7.9,0,11.8,0c0-0.3,0-0.5,0-0.7   c0-6.6,0-13.2,0-19.9c0-1.6-0.2-3.3-0.5-4.9c-1-4.8-3.6-8.4-8.4-10c-1.9-0.6-3.9-0.8-5.9-0.6c-3.4,0.2-6.2,1.6-8.3,4.2   c-0.3,0.4-0.6,0.8-0.9,1.2c-0.1,0-0.1,0-0.2,0c0-1.5,0-3.1,0-4.6c-4,0-7.9,0-11.8,0c0,11.8,0,23.5,0,35.3   C70.2,101.7,74.1,101.7,78.1,101.7z M47.9,66.4c0,11.8,0,23.5,0,35.3c3.9,0,7.8,0,11.7,0c0-11.8,0-23.5,0-35.3   C55.8,66.4,51.9,66.4,47.9,66.4z M53.9,49.3c-2.9,0-5.3,1.4-6.2,3.7c-1.6,3.9,0.8,7.9,5,8.4c3.5,0.4,6.3-1,7.4-3.7   C61.7,53.5,58.7,49.3,53.9,49.3z" id="XMLID_534_"/><g class="st4" id="XMLID_526_"><path class="st3" d="M102.4,101.6c-3.9,0-7.8,0-11.8,0c0,0.3,0,0.6,0,1c4,0,7.9,0,11.8,0c0-0.3,0-0.5,0-0.7    c0-3.4,0-6.7,0-10.1c0,3,0,6.1,0,9.1C102.4,101.2,102.4,101.4,102.4,101.6z" id="XMLID_533_"/><path class="st3" d="M59.7,102.6c0-0.3,0-0.7,0-1c-3.9,0-7.8,0-11.7,0c0,0.3,0,0.7,0,1    C51.9,102.6,55.8,102.6,59.7,102.6z" id="XMLID_532_"/><path class="st3" d="M52.7,62.4c3.5,0.4,6.3-1,7.4-3.7c0.4-1,0.5-1.9,0.4-2.8c-0.1,0.6-0.2,1.2-0.4,1.9    c-1.1,2.7-3.9,4.1-7.4,3.7c-3.1-0.4-5.3-2.7-5.5-5.5C46.9,59.1,49.2,62,52.7,62.4z" id="XMLID_531_"/><path class="st3" d="M108,36.1c-21.9,0-43.7,0-65.6,0c-3.4,0-6.5,2.2-6.4,6.4c0,0.3,0,0.6,0,0.8    c0-4.1,3.1-6.3,6.4-6.3c21.9,0.1,43.7,0,65.6,0c4,0,6.3,2.3,6.3,6.3c0-0.3,0-0.7,0-1C114.3,38.5,112,36.1,108,36.1z" id="XMLID_530_"/><path class="st3" d="M36,76.1c0-5.6,0-11.2,0-16.9c0,5.3,0,10.7,0,16C36,75.6,36,75.9,36,76.1z" id="XMLID_529_"/><path class="st3" d="M78.1,82c0-2.2,1.1-3.8,2.8-5.1c3.5-2.5,8-0.9,9.1,3.2c0.3,1.3,0.5,2.8,0.5,4.1    c0,2.8,0,5.6,0,8.5c0-3.1,0-6.3,0-9.4c0-1.4-0.1-2.8-0.5-4.1C89,75,84.4,73.4,81,75.9c-1.7,1.2-2.8,2.9-2.8,5.1c0,6.5,0,13,0,19.5    c0,0.3,0,0.7,0,1.1c0,0,0-0.1,0-0.1C78.1,95,78.1,88.5,78.1,82z" id="XMLID_528_"/><path class="st3" d="M78.1,102.6c0-0.4,0-0.7,0-1c-4,0-7.9,0-11.8,0c0,0.3,0,0.7,0,1    C70.2,102.6,74.1,102.6,78.1,102.6z" id="XMLID_527_"/></g><g class="st4" id="XMLID_517_"><path class="st5" d="M78.1,66.4c-4,0-7.9,0-11.8,0c0,0.3,0,0.7,0,1c3.9,0,7.7,0,11.8,0    C78.1,67.1,78.1,66.7,78.1,66.4z" id="XMLID_525_"/><path class="st5" d="M47.9,66.4c0,0.3,0,0.7,0,1c3.9,0,7.8,0,11.7,0c0-0.3,0-0.7,0-1    C55.8,66.4,51.9,66.4,47.9,66.4z" id="XMLID_524_"/><path class="st5" d="M53.9,49.3c-2.9,0-5.3,1.4-6.2,3.7c-0.4,1-0.6,2-0.5,3c0.1-0.6,0.2-1.3,0.5-2    c1-2.3,3.3-3.7,6.2-3.7c3.7,0,6.3,2.5,6.6,5.5C60.8,52.3,58,49.3,53.9,49.3z" id="XMLID_523_"/><path class="st5" d="M78.1,101.7C78.1,101.6,78.1,101.6,78.1,101.7C78.1,101.6,78.1,101.6,78.1,101.7L78.1,101.7z    " id="XMLID_522_"/><path class="st5" d="M108,114.5c-22,0-43.9,0-65.9,0c-3.1,0-5.3-1.6-6-4.2c-0.2-0.6-0.2-1.3-0.2-2    c0-10.7,0-21.4,0-32.1c0,0.1,0,0.1,0,0.2c0,11,0,22,0,32.9c0,0.7,0,1.3,0.2,2c0.7,2.7,2.9,4.2,6,4.2c22,0,43.9,0,65.9,0    c3.9,0,6.3-2.3,6.3-6.2c0-0.3,0-0.7,0-1C114.3,112.1,112,114.5,108,114.5z" id="XMLID_521_"/><path class="st5" d="M90.5,101.6c0-3,0-5.9,0-8.9c0,2.6,0,5.3,0,7.9C90.5,100.9,90.5,101.2,90.5,101.6z" id="XMLID_520_"/><path class="st5" d="M36,43.4c0,0.1,0,0.1,0,0.2C36,48.8,36,54,36,59.3C36,54,36,48.7,36,43.4z" id="XMLID_519_"/><path class="st5" d="M102.3,81.1c0-1.6-0.2-3.3-0.5-4.9c-1-4.8-3.6-8.4-8.4-10c-1.9-0.6-3.9-0.8-5.9-0.6    c-3.4,0.2-6.2,1.6-8.3,4.2c-0.3,0.4-0.6,0.8-0.9,1.2c-0.1,0-0.1,0-0.2,0c0,0.3,0,0.7,0,1c0.1,0,0.1,0,0.2,0    c0.3-0.4,0.6-0.8,0.9-1.2c2.1-2.6,4.9-4,8.3-4.2c2-0.1,4,0,5.9,0.6c4.8,1.6,7.4,5.2,8.4,10c0.3,1.6,0.5,3.3,0.5,4.9    c0,3.2,0,6.5,0,9.7C102.4,88.3,102.4,84.7,102.3,81.1z" id="XMLID_518_"/></g></g></svg>